<mxfile host="app.diagrams.net" modified="2023-03-26T10:49:57.505Z" agent="Mozilla/5.0 (Windows NT 10.0; Win64; x64) AppleWebKit/537.36 (KHTML, like Gecko) Chrome/111.0.0.0 Safari/537.36 Edg/111.0.1661.51" etag="k6dZbQIZS0360q_V0vvq" version="21.1.1" type="github">
  <diagram name="第 1 页" id="5a3VWwRXIUWUGGKSiQhn">
    <mxGraphModel dx="1377" dy="796" grid="0" gridSize="10" guides="1" tooltips="1" connect="1" arrows="1" fold="1" page="1" pageScale="1" pageWidth="827" pageHeight="1169" math="0" shadow="0">
      <root>
        <mxCell id="0" />
        <mxCell id="1" parent="0" />
        <mxCell id="jr-JLUpDfYuUMU0Q_Twg-10" style="edgeStyle=orthogonalEdgeStyle;rounded=0;orthogonalLoop=1;jettySize=auto;html=1;exitX=0;exitY=0.25;exitDx=0;exitDy=0;entryX=0.84;entryY=0.28;entryDx=0;entryDy=0;entryPerimeter=0;curved=1;fillColor=#ffe6cc;strokeColor=#d79b00;strokeWidth=2;" edge="1" parent="1" source="jr-JLUpDfYuUMU0Q_Twg-3" target="jr-JLUpDfYuUMU0Q_Twg-6">
          <mxGeometry relative="1" as="geometry" />
        </mxCell>
        <mxCell id="jr-JLUpDfYuUMU0Q_Twg-12" style="edgeStyle=orthogonalEdgeStyle;rounded=0;orthogonalLoop=1;jettySize=auto;html=1;exitX=0.25;exitY=1;exitDx=0;exitDy=0;entryX=0.25;entryY=0;entryDx=0;entryDy=0;fillColor=#e1d5e7;strokeColor=#9673a6;strokeWidth=2;" edge="1" parent="1" source="jr-JLUpDfYuUMU0Q_Twg-3" target="jr-JLUpDfYuUMU0Q_Twg-4">
          <mxGeometry relative="1" as="geometry" />
        </mxCell>
        <mxCell id="jr-JLUpDfYuUMU0Q_Twg-3" value="微信机器人&lt;br&gt;（我的微信小号）" style="rounded=0;whiteSpace=wrap;html=1;fillColor=#d5e8d4;strokeColor=#82b366;" vertex="1" parent="1">
          <mxGeometry x="280" y="270" width="120" height="60" as="geometry" />
        </mxCell>
        <mxCell id="jr-JLUpDfYuUMU0Q_Twg-9" style="edgeStyle=orthogonalEdgeStyle;rounded=0;orthogonalLoop=1;jettySize=auto;html=1;exitX=0.75;exitY=0;exitDx=0;exitDy=0;entryX=0.75;entryY=1;entryDx=0;entryDy=0;fillColor=#ffe6cc;strokeColor=#d79b00;strokeWidth=2;" edge="1" parent="1" source="jr-JLUpDfYuUMU0Q_Twg-4" target="jr-JLUpDfYuUMU0Q_Twg-3">
          <mxGeometry relative="1" as="geometry" />
        </mxCell>
        <mxCell id="jr-JLUpDfYuUMU0Q_Twg-14" style="edgeStyle=orthogonalEdgeStyle;rounded=0;orthogonalLoop=1;jettySize=auto;html=1;exitX=1;exitY=0.75;exitDx=0;exitDy=0;entryX=0.5;entryY=1;entryDx=0;entryDy=0;entryPerimeter=0;curved=1;fillColor=#e1d5e7;strokeColor=#9673a6;strokeWidth=2;" edge="1" parent="1" source="jr-JLUpDfYuUMU0Q_Twg-4" target="jr-JLUpDfYuUMU0Q_Twg-5">
          <mxGeometry relative="1" as="geometry" />
        </mxCell>
        <mxCell id="jr-JLUpDfYuUMU0Q_Twg-4" value="QQ机器人(我的QQ)" style="rounded=0;whiteSpace=wrap;html=1;fillColor=#dae8fc;strokeColor=#6c8ebf;" vertex="1" parent="1">
          <mxGeometry x="280" y="410" width="120" height="60" as="geometry" />
        </mxCell>
        <mxCell id="jr-JLUpDfYuUMU0Q_Twg-13" style="edgeStyle=orthogonalEdgeStyle;rounded=0;orthogonalLoop=1;jettySize=auto;html=1;exitX=0.87;exitY=0.65;exitDx=0;exitDy=0;exitPerimeter=0;entryX=1;entryY=0.25;entryDx=0;entryDy=0;curved=1;fillColor=#ffe6cc;strokeColor=#d79b00;strokeWidth=2;" edge="1" parent="1" source="jr-JLUpDfYuUMU0Q_Twg-5" target="jr-JLUpDfYuUMU0Q_Twg-4">
          <mxGeometry relative="1" as="geometry" />
        </mxCell>
        <mxCell id="jr-JLUpDfYuUMU0Q_Twg-5" value="" style="verticalLabelPosition=bottom;html=1;verticalAlign=top;align=center;strokeColor=#b85450;fillColor=#f8cecc;shape=mxgraph.azure.user;flipH=1;" vertex="1" parent="1">
          <mxGeometry x="610" y="360" width="47.5" height="50" as="geometry" />
        </mxCell>
        <mxCell id="jr-JLUpDfYuUMU0Q_Twg-11" style="edgeStyle=orthogonalEdgeStyle;rounded=0;orthogonalLoop=1;jettySize=auto;html=1;exitX=0.87;exitY=0.65;exitDx=0;exitDy=0;exitPerimeter=0;entryX=0;entryY=0.75;entryDx=0;entryDy=0;curved=1;fillColor=#e1d5e7;strokeColor=#9673a6;strokeWidth=2;" edge="1" parent="1" source="jr-JLUpDfYuUMU0Q_Twg-6" target="jr-JLUpDfYuUMU0Q_Twg-3">
          <mxGeometry relative="1" as="geometry" />
        </mxCell>
        <mxCell id="jr-JLUpDfYuUMU0Q_Twg-6" value="" style="verticalLabelPosition=bottom;html=1;verticalAlign=top;align=center;strokeColor=none;fillColor=#00BEF2;shape=mxgraph.azure.user;" vertex="1" parent="1">
          <mxGeometry x="50" y="350" width="47.5" height="50" as="geometry" />
        </mxCell>
        <mxCell id="jr-JLUpDfYuUMU0Q_Twg-15" value="女朋友QQ" style="text;html=1;strokeColor=none;fillColor=none;align=center;verticalAlign=middle;whiteSpace=wrap;rounded=0;" vertex="1" parent="1">
          <mxGeometry x="657.5" y="370" width="60" height="30" as="geometry" />
        </mxCell>
        <mxCell id="jr-JLUpDfYuUMU0Q_Twg-16" value="我的微信" style="text;html=1;strokeColor=none;fillColor=none;align=center;verticalAlign=middle;whiteSpace=wrap;rounded=0;" vertex="1" parent="1">
          <mxGeometry x="37.5" y="400" width="60" height="30" as="geometry" />
        </mxCell>
        <mxCell id="jr-JLUpDfYuUMU0Q_Twg-17" value="女朋友使用QQ给我的QQ发消息" style="text;html=1;strokeColor=none;fillColor=none;align=center;verticalAlign=middle;whiteSpace=wrap;rounded=0;" vertex="1" parent="1">
          <mxGeometry x="500" y="360" width="100" height="30" as="geometry" />
        </mxCell>
        <mxCell id="jr-JLUpDfYuUMU0Q_Twg-18" value="QQ机器人把消息转发到微信小号" style="text;html=1;strokeColor=none;fillColor=none;align=center;verticalAlign=middle;whiteSpace=wrap;rounded=0;" vertex="1" parent="1">
          <mxGeometry x="370" y="360" width="60" height="30" as="geometry" />
        </mxCell>
        <mxCell id="jr-JLUpDfYuUMU0Q_Twg-19" value="微信小号把接收到的消息转给我大号" style="text;html=1;strokeColor=none;fillColor=none;align=center;verticalAlign=middle;whiteSpace=wrap;rounded=0;" vertex="1" parent="1">
          <mxGeometry x="110" y="250" width="110" height="30" as="geometry" />
        </mxCell>
        <mxCell id="jr-JLUpDfYuUMU0Q_Twg-20" value="我向小号回复消息" style="text;html=1;strokeColor=none;fillColor=none;align=center;verticalAlign=middle;whiteSpace=wrap;rounded=0;" vertex="1" parent="1">
          <mxGeometry x="120" y="380" width="80" height="30" as="geometry" />
        </mxCell>
        <mxCell id="jr-JLUpDfYuUMU0Q_Twg-21" value="小号收到我的消息通知QQ机器人" style="text;html=1;strokeColor=none;fillColor=none;align=center;verticalAlign=middle;whiteSpace=wrap;rounded=0;" vertex="1" parent="1">
          <mxGeometry x="230" y="350" width="80" height="30" as="geometry" />
        </mxCell>
        <mxCell id="jr-JLUpDfYuUMU0Q_Twg-22" value="QQ机器人调用发消息API发消息给女朋友" style="text;html=1;strokeColor=none;fillColor=none;align=center;verticalAlign=middle;whiteSpace=wrap;rounded=0;" vertex="1" parent="1">
          <mxGeometry x="470" y="470" width="80" height="30" as="geometry" />
        </mxCell>
      </root>
    </mxGraphModel>
  </diagram>
</mxfile>
